# xmcd
#
# Track frame offsets:
#	150
#	17625
#	29962
#	47587
#	63375
#	81675
#	95512
#	113437
#	132037
#	147037
#	157537
#	174300
#	192937
#
# Disc length: 2865 seconds
# Revision: 1
# Processed by: cddbd v1.5.2PL0 Copyright (c) Steve Scherf et al.
# Submitted via: dBpowerAMP V12.0
#
DISCID=a30b2f0d
DTITLE=Rick Holmstrom - Gonna Get Wild
DYEAR=2000
DGENRE=Blues
TTITLE0=Gonna Get Wild
TTITLE1=Have You Seen my Girl
TTITLE2=Wiggle Stick
TTITLE3=I'd Hate to See You Cry
TTITLE4=Lucky Day
TTITLE5=Lovin Ways
TTITLE6=Phlazzbo
TTITLE7=You Missed Your Chance
TTITLE8=Just Right
TTITLE9=Uno Mas
TTITLE10=What's Ailing You
TTITLE11=Lost in The Shuffle
TTITLE12=Untitled Bonus Track 13
EXTD=
EXTT0=
EXTT1=
EXTT2=
EXTT3=
EXTT4=
EXTT5=
EXTT6=
EXTT7=
EXTT8=
EXTT9=
EXTT10=
EXTT11=
EXTT12=
PLAYORDER=
